<?xml version="1.0" encoding="UTF-8"?>
<svg width="170px" height="263px" viewBox="0 0 170 263" version="1.1" xmlns="http://www.w3.org/2000/svg" xmlns:xlink="http://www.w3.org/1999/xlink">
    <title>C877841A-8D99-41AF-A204-CE0D37330A72</title>
    <defs>
        <polygon id="path-1" points="0 94.0686275 131.749944 94.0686275 131.749944 0.911813725 0 0.911813725"></polygon>
        <polygon id="path-3" points="0.981253488 0.186742857 4.92518372 0.186742857 4.92518372 5.71428571 0.981253488 5.71428571"></polygon>
        <polygon id="path-5" points="0 94.8571429 96.904907 94.8571429 96.904907 0.513142857 0 0.513142857"></polygon>
    </defs>
    <g id="Desktop" stroke="none" stroke-width="1" fill="none" fill-rule="evenodd">
        <g id="T8---Newsroom" transform="translate(-152.000000, 0.000000)">
            <g id="Logo---Ribbon" transform="translate(152.000000, 0.000000)">
                <rect id="Rectangle" fill="#252159" x="0" y="0" width="170" height="263"></rect>
                <g id="Group-53" transform="translate(19.000000, 24.000000)">
                    <polygon id="Fill-1" fill="#FFFFFF" points="65.8754366 0.931745098 36.7164507 11.0725294 38.1377746 15.0224804 65.8754366 5.37439216 93.6140282 15.0224804 95.0353521 11.0725294"></polygon>
                    <polygon id="Fill-2" fill="#FFFFFF" points="39.1919155 94.0881863 92.5598873 94.0881863 92.5598873 89.9007353 39.1919155 89.9007353"></polygon>
                    <path d="M24.5830479,32.6735735 L28.8042592,32.6735735 L26.7285127,27.5668578 L26.6820338,27.5668578 L24.5830479,32.6735735 Z M18.1475831,38.892348 L25.1603155,22.9370049 L28.3422592,22.9370049 L35.3326817,38.892348 L31.3884845,38.892348 L30.0275831,35.6241618 L23.3606535,35.6241618 L21.9997521,38.892348 L18.1475831,38.892348 Z" id="Fill-3" fill="#FFFFFF"></path>
                    <g id="Group-52" transform="translate(0.000000, 0.019559)">
                        <path d="M50.4886986,36.2630833 C49.0348394,38.1686716 46.6606986,39.1000441 44.3757972,39.1000441 C39.2547549,39.1000441 35.7725577,35.5598971 35.7725577,30.9281814 C35.7725577,26.2992598 39.2092056,22.7581814 44.3070085,22.7581814 C46.5445014,22.7581814 48.7819944,23.4380833 50.1196563,25.2095539 L47.4201634,27.3656814 C46.7294873,26.5935735 45.7134592,26.0263676 44.4222761,26.0263676 C41.7460225,26.0263676 39.5540789,27.9561716 39.5540789,30.9281814 C39.5540789,33.9020539 41.769262,35.8318578 44.3070085,35.8318578 C45.7376282,35.8318578 46.9823324,35.1500931 47.7204169,34.1982304 L50.4886986,36.2630833 Z" id="Fill-4" fill="#FFFFFF"></path>
                        <path d="M64.0301324,27.5923775 C63.0392028,26.6395833 62.2537099,26.0248775 60.431738,26.0248775 C57.8484423,26.0248775 55.6564986,27.9556127 55.6564986,30.9294853 C55.6564986,33.9014951 57.7777944,35.831299 60.3387803,35.831299 C61.9088366,35.831299 62.807738,35.513701 63.4761042,35.17375 L63.4761042,32.5184069 L60.5693155,32.5184069 L60.5693155,29.4988971 L66.9824704,29.4988971 L66.9824704,37.3075245 C64.7226676,38.5322794 62.8309775,39.0994853 60.3387803,39.0994853 C55.241907,39.0994853 51.8740479,35.5593382 51.8740479,30.9294853 C51.8740479,26.2977696 55.3106958,22.7576225 60.4782169,22.7576225 C63.0605831,22.7576225 64.7905268,23.5297304 66.4749211,25.0497304 L64.0301324,27.5923775 Z" id="Fill-6" fill="#FFFFFF"></path>
                        <polygon id="Fill-8" fill="#FFFFFF" points="77.1786338 27.6597157 75.8419014 25.0267255 79.6717606 22.9851569 82.9457324 22.9851569 82.9457324 38.8725098 79.3017887 38.8725098 79.3017887 26.6389314"></polygon>
                        <path d="M89.5209127,34.3793824 C89.9141239,35.3312451 90.7684056,35.876098 91.8048845,35.876098 C93.1657859,35.876098 94.1353352,34.8562451 94.1353352,33.4256569 C94.1353352,32.0872745 93.3275324,31.0199216 91.667307,31.0199216 C90.6745183,31.0199216 89.4279549,31.3831569 88.6675606,31.7678137 L86.8465183,30.5886961 L87.2137014,22.9849706 L97.1109127,22.9849706 L97.1109127,26.0938922 L90.281307,26.0938922 L90.1902085,28.250951 C90.7907155,28.1131078 91.504631,28.0469804 92.3124338,28.0469804 C95.4506873,28.0469804 97.8945465,29.9078627 97.8945465,33.5625686 C97.8945465,36.921098 95.3568,39.0986471 91.643138,39.0986471 C88.9668845,39.0986471 87.0064056,37.8524706 86.176293,35.4681569 L89.5209127,34.3793824 Z" id="Fill-10" fill="#FFFFFF"></path>
                        <path d="M109.820932,30.9286471 C109.820932,28.0702647 109.014059,26.025902 107.145608,26.025902 C105.253918,26.025902 104.447045,28.0004118 104.447045,30.9286471 C104.447045,33.8121765 105.231608,35.8323235 107.145608,35.8323235 C109.036369,35.8323235 109.820932,33.833598 109.820932,30.9286471 M100.662735,30.9286471 C100.662735,26.3220784 103.061975,22.7586471 107.145608,22.7586471 C111.182763,22.7586471 113.604313,26.2755098 113.604313,30.9286471 C113.604313,35.5361471 111.228313,39.0995784 107.145608,39.0995784 C103.039665,39.0995784 100.662735,35.5808529 100.662735,30.9286471" id="Fill-12" fill="#FFFFFF"></path>
                        <path d="M4.29576338,53.428 L4.31993239,53.428 L6.12331268,57.6182451 L2.45612958,57.6182451 L4.29576338,53.428 Z M3.83934085,52.1771667 L0.000185915493,60.7150588 L1.09987606,60.7150588 L2.07314366,58.517951 L6.50629859,58.517951 L7.44517183,60.7150588 L8.60435493,60.7150588 L4.82748169,52.1771667 L3.83934085,52.1771667 Z" id="Fill-14" fill="#FFFFFF"></path>
                        <path d="M14.6653859,57.6800882 C14.6653859,56.2224902 13.615893,55.3972941 12.5059775,55.3972941 C11.3691042,55.3972941 10.381893,56.2224902 10.381893,57.667049 C10.381893,59.1246471 11.3560901,59.9638137 12.5059775,59.9638137 C13.615893,59.9638137 14.6653859,59.1246471 14.6653859,57.6800882 M9.35749859,57.667049 C9.35749859,55.6515588 10.8875831,54.5096961 12.3823437,54.5096961 C13.382569,54.5096961 14.0723155,54.9455784 14.5668507,55.5658725 L14.6040338,55.5658725 L14.6040338,51.6066078 L15.6033296,51.6066078 L15.6033296,60.7163627 L14.6040338,60.7163627 L14.6040338,59.7943039 L14.5668507,59.7943039 C14.1104282,60.389451 13.3937239,60.8383725 12.3823437,60.8383725 C10.8875831,60.8383725 9.35749859,59.6965098 9.35749859,57.667049" id="Fill-16" fill="#FFFFFF"></path>
                        <polygon id="Fill-18" fill="#FFFFFF" points="16.9866338 54.6313333 18.0602958 54.6313333 20.0849155 59.5620196 20.097 59.5620196 22.1337042 54.6313333 23.1962113 54.6313333 20.541338 60.7653529 19.628493 60.7653529"></polygon>
                        <path d="M28.195107,57.9466471 C27.7135859,57.8497843 27.3055014,57.7762059 26.6027408,57.7762059 C25.6517831,57.7762059 24.9360085,58.2269902 24.9360085,58.9795392 C24.9360085,59.7209118 25.4658676,60.0729706 26.2690225,60.0729706 C27.2078958,60.0729706 28.195107,59.2468431 28.195107,58.4700784 L28.195107,57.9466471 Z M28.195107,57.1698824 L28.195107,56.9621863 C28.195107,55.9311569 27.5165155,55.3835098 26.5413887,55.3835098 C25.8246845,55.3835098 25.3812761,55.5781667 24.8002901,55.9907647 L24.2574169,55.2885098 C24.8746563,54.8377255 25.5895014,54.5108137 26.5042056,54.5108137 C28.0593887,54.5108137 29.1823183,55.2261078 29.1823183,56.8904706 L29.1823183,60.7174804 L28.195107,60.7174804 L28.195107,59.8298824 L28.1588535,59.8298824 C27.7377549,60.3523824 27.0470789,60.8506667 25.9975859,60.8506667 C24.8384028,60.8506667 23.922769,60.2666961 23.922769,58.9795392 C23.922769,57.6933137 25.1470225,57.0124804 26.5283746,57.0124804 C27.1326,57.0124804 27.7628535,57.0720882 28.195107,57.1698824 L28.195107,57.1698824 Z" id="Fill-20" fill="#FFFFFF"></path>
                        <path d="M31.1082169,54.6313333 L32.1084423,54.6313333 L32.1084423,55.5301078 L32.1446958,55.5301078 C32.5639352,54.8744216 33.2434563,54.5093235 34.1563014,54.5093235 C35.5887803,54.5093235 36.4532873,55.518 36.4532873,56.9867745 L36.4532873,60.7159902 L35.453062,60.7159902 L35.453062,57.1823627 C35.453062,56.088 34.8971746,55.408098 33.8476817,55.408098 C32.8363014,55.408098 32.1084423,56.2472647 32.1084423,57.3639804 L32.1084423,60.7159902 L31.1082169,60.7159902 L31.1082169,54.6313333 Z" id="Fill-22" fill="#FFFFFF"></path>
                        <path d="M43.8354338,59.6838431 C43.1679972,60.3637451 42.4522225,60.8368824 41.2800254,60.8368824 C39.4654901,60.8368824 38.1324761,59.4305098 38.1324761,57.6674216 C38.1324761,55.9173725 39.4654901,54.5082059 41.2800254,54.5082059 C42.4522225,54.5082059 43.2051803,54.971098 43.7852366,55.5662451 L43.0815465,56.1977157 C42.613969,55.7003627 42.0580817,55.3846275 41.2921099,55.3846275 C40.0697155,55.3846275 39.1568704,56.3672255 39.1568704,57.6674216 C39.1568704,58.9787941 40.0455465,59.9641863 41.2921099,59.9641863 C42.0710958,59.9641863 42.6994901,59.5869804 43.1810113,59.078451 L43.8354338,59.6838431 Z" id="Fill-24" fill="#FFFFFF"></path>
                        <mask id="mask-2" fill="white">
                            <use xlink:href="#path-1"></use>
                        </mask>
                        <g id="Clip-27"></g>
                        <path d="M45.4265915,60.7161765 L46.4268169,60.7161765 L46.4268169,54.6315196 L45.4265915,54.6315196 L45.4265915,60.7161765 Z M45.9332113,53.2707843 C45.5260563,53.2707843 45.1932676,52.9438725 45.1932676,52.542451 C45.1932676,52.1531373 45.5260563,51.8252941 45.9332113,51.8252941 C46.3292113,51.8252941 46.6740845,52.1531373 46.6740845,52.542451 C46.6740845,52.9438725 46.3292113,53.2707843 45.9332113,53.2707843 L45.9332113,53.2707843 Z" id="Fill-26" fill="#FFFFFF" mask="url(#mask-2)"></path>
                        <path d="M48.5750704,54.6313333 L49.5752958,54.6313333 L49.5752958,55.5301078 L49.6115493,55.5301078 C50.0307887,54.8744216 50.7103099,54.5093235 51.6231549,54.5093235 C53.0556338,54.5093235 53.9201408,55.518 53.9201408,56.9867745 L53.9201408,60.7159902 L52.9208451,60.7159902 L52.9208451,57.1823627 C52.9208451,56.088 52.3640282,55.408098 51.3154648,55.408098 C50.3031549,55.408098 49.5752958,56.2472647 49.5752958,57.3639804 L49.5752958,60.7159902 L48.5750704,60.7159902 L48.5750704,54.6313333 Z" id="Fill-28" fill="#FFFFFF" mask="url(#mask-2)"></path>
                        <path d="M60.9064732,57.4855245 C60.9064732,56.2831225 59.8337408,55.3964559 58.6968676,55.3964559 C57.549769,55.3964559 56.6359944,56.2700833 56.6359944,57.4976324 C56.6359944,58.7372892 57.5869521,59.5997402 58.6968676,59.5997402 C59.8337408,59.5997402 60.9064732,58.6879265 60.9064732,57.4855245 M55.833769,62.1982696 L56.3152901,61.4578284 C57.0431493,61.9915049 57.8091211,62.2224853 58.6736282,62.2224853 C60.0187268,62.2224853 60.8572056,61.5053284 60.8572056,60.1222402 L60.8572056,59.3808676 L60.8209521,59.3808676 C60.2892338,60.0859167 59.5613746,60.4864069 58.5732338,60.4864069 C57.081262,60.4864069 55.5995155,59.2709657 55.5995155,57.4976324 C55.5995155,55.7121912 57.1045014,54.5097892 58.5862479,54.5097892 C59.6227268,54.5097892 60.3273465,54.9223873 60.8209521,55.5799363 L60.8572056,55.5799363 L60.8572056,54.6308676 L61.857431,54.6308676 L61.857431,60.0859167 C61.857431,61.9672892 60.6601352,63.0858676 58.6857127,63.0858676 C57.6473746,63.0858676 56.7233746,62.8306716 55.833769,62.1982696" id="Fill-29" fill="#FFFFFF" mask="url(#mask-2)"></path>
                        <path d="M68.0053775,59.0162353 L68.0053775,55.4816765 L67.0051521,55.4816765 L67.0051521,54.6313333 L68.0053775,54.6313333 L68.0053775,53.1374118 L69.0176873,53.1374118 L69.0176873,54.6313333 L70.8935746,54.6313333 L70.8935746,55.4816765 L69.0176873,55.4816765 L69.0176873,58.9668725 C69.0176873,59.7203529 69.4239127,59.9625098 70.0299972,59.9625098 C70.3386169,59.9625098 70.5840254,59.8898627 70.9298282,59.7436373 L70.9298282,60.5828039 C70.5728704,60.7653529 70.2149831,60.838 69.7697155,60.838 C68.7704197,60.838 68.0053775,60.3033922 68.0053775,59.0162353" id="Fill-30" fill="#FFFFFF" mask="url(#mask-2)"></path>
                        <path d="M72.3509662,51.6070735 L73.350262,51.6070735 L73.350262,55.5300147 L73.3865155,55.5300147 C73.8066845,54.8743284 74.4852761,54.5101618 75.3981211,54.5101618 C76.8306,54.5101618 77.695107,55.5179069 77.695107,56.9866814 L77.695107,60.7168284 L76.6948817,60.7168284 L76.6948817,57.1804069 C76.6948817,56.0888382 76.1389944,55.4089363 75.0895014,55.4089363 C74.0781211,55.4089363 73.350262,56.2462402 73.350262,57.3648186 L73.350262,60.7168284 L72.3509662,60.7168284 L72.3509662,51.6070735 Z" id="Fill-31" fill="#FFFFFF" mask="url(#mask-2)"></path>
                        <path d="M84.2257606,57.2908676 C84.1262958,56.2346912 83.4969718,55.3349853 82.3238451,55.3349853 C81.2994507,55.3349853 80.5334789,56.1490049 80.4107746,57.2908676 L84.2257606,57.2908676 Z M79.3733662,57.6671422 C79.3733662,55.9059167 80.6199296,54.5107206 82.3470845,54.5107206 C84.1997324,54.5107206 85.2501549,55.9422402 85.2501549,57.7295441 C85.2501549,57.924201 85.2501549,57.9707696 85.2371408,58.0685637 L80.4107746,58.0685637 C80.5334789,59.2951814 81.4119296,59.974152 82.4725775,59.974152 C83.3129155,59.974152 83.9031972,59.6230245 84.4098169,59.089348 L85.0530845,59.6835637 C84.3977324,60.3997892 83.6215352,60.8393971 82.4474789,60.8393971 C80.7314789,60.8393971 79.3733662,59.5745931 79.3733662,57.6671422 L79.3733662,57.6671422 Z" id="Fill-32" fill="#FFFFFF" mask="url(#mask-2)"></path>
                        <polygon id="Fill-33" fill="#FFFFFF" mask="url(#mask-2)" points="90.719231 52.2137696 91.7547803 52.2137696 91.7547803 59.7439167 96.2232592 59.7439167 96.2232592 60.7162696 90.719231 60.7162696"></polygon>
                        <path d="M102.051152,57.2908676 C101.951687,56.2346912 101.323293,55.3349853 100.149237,55.3349853 C99.1257718,55.3349853 98.3588704,56.1490049 98.2361662,57.2908676 L102.051152,57.2908676 Z M97.1987577,57.6671422 C97.1987577,55.9059167 98.4462507,54.5107206 100.173406,54.5107206 C102.026054,54.5107206 103.073687,55.9422402 103.073687,57.7295441 C103.073687,57.924201 103.073687,57.9707696 103.063462,58.0685637 L98.2361662,58.0685637 C98.3588704,59.2951814 99.2363915,59.974152 100.297969,59.974152 C101.137377,59.974152 101.729518,59.6230245 102.236138,59.089348 L102.879406,59.6835637 C102.223124,60.3997892 101.445997,60.8393971 100.2738,60.8393971 C98.5568704,60.8393971 97.1987577,59.5745931 97.1987577,57.6671422 L97.1987577,57.6671422 Z" id="Fill-34" fill="#FFFFFF" mask="url(#mask-2)"></path>
                        <path d="M109.655746,57.4855245 C109.655746,56.2831225 108.581155,55.3964559 107.446141,55.3964559 C106.298113,55.3964559 105.383408,56.2700833 105.383408,57.4976324 C105.383408,58.7372892 106.334366,59.5997402 107.446141,59.5997402 C108.581155,59.5997402 109.655746,58.6879265 109.655746,57.4855245 M104.581183,62.1982696 L105.062704,61.4578284 C105.791493,61.9915049 106.555606,62.2224853 107.421042,62.2224853 C108.765211,62.2224853 109.605549,61.5053284 109.605549,60.1222402 L109.605549,59.3808676 L109.567437,59.3808676 C109.038507,60.0859167 108.309718,60.4864069 107.321577,60.4864069 C105.828676,60.4864069 104.34693,59.2709657 104.34693,57.4976324 C104.34693,55.7121912 105.851915,54.5097892 107.333662,54.5097892 C108.372,54.5097892 109.074761,54.9223873 109.567437,55.5799363 L109.605549,55.5799363 L109.605549,54.6308676 L110.605775,54.6308676 L110.605775,60.0859167 C110.605775,61.9672892 109.407549,63.0858676 107.433127,63.0858676 C106.396648,63.0858676 105.470789,62.8306716 104.581183,62.1982696" id="Fill-35" fill="#FFFFFF" mask="url(#mask-2)"></path>
                        <path d="M116.456907,57.9466471 C115.975386,57.8497843 115.568231,57.7762059 114.864541,57.7762059 C113.913583,57.7762059 113.197808,58.2269902 113.197808,58.9795392 C113.197808,59.7209118 113.727668,60.0729706 114.530823,60.0729706 C115.469696,60.0729706 116.456907,59.2468431 116.456907,58.4700784 L116.456907,57.9466471 Z M116.456907,57.1698824 L116.456907,56.9621863 C116.456907,55.9311569 115.778315,55.3835098 114.803189,55.3835098 C114.086485,55.3835098 113.643076,55.5781667 113.06209,55.9907647 L112.519217,55.2885098 C113.135527,54.8377255 113.851301,54.5108137 114.766006,54.5108137 C116.320259,54.5108137 117.444118,55.2261078 117.444118,56.8904706 L117.444118,60.7174804 L116.456907,60.7174804 L116.456907,59.8298824 L116.419724,59.8298824 C115.999555,60.3523824 115.309808,60.8506667 114.259386,60.8506667 C113.100203,60.8506667 112.184569,60.2666961 112.184569,58.9795392 C112.184569,57.6933137 113.407893,57.0124804 114.789245,57.0124804 C115.3944,57.0124804 116.024654,57.0720882 116.456907,57.1698824 L116.456907,57.1698824 Z" id="Fill-36" fill="#FFFFFF" mask="url(#mask-2)"></path>
                        <path d="M124.715087,59.6838431 C124.047651,60.3637451 123.332806,60.8368824 122.160608,60.8368824 C120.345144,60.8368824 119.01213,59.4305098 119.01213,57.6674216 C119.01213,55.9173725 120.345144,54.5082059 122.160608,54.5082059 C123.332806,54.5082059 124.084834,54.971098 124.66582,55.5662451 L123.96213,56.1977157 C123.492693,55.7003627 122.936806,55.3846275 122.172693,55.3846275 C120.949369,55.3846275 120.035594,56.3672255 120.035594,57.6674216 C120.035594,58.9787941 120.9252,59.9641863 122.172693,59.9641863 C122.950749,59.9641863 123.579144,59.5869804 124.061594,59.078451 L124.715087,59.6838431 Z" id="Fill-37" fill="#FFFFFF" mask="url(#mask-2)"></path>
                        <path d="M131.750408,54.6313333 L129.122493,61.3251078 C128.628887,62.6234412 127.998634,63.085402 126.998408,63.085402 C126.479704,63.085402 126.060465,62.9755 125.627282,62.7696667 L125.886634,61.9910392 C126.257535,62.1251569 126.591254,62.2220196 126.936127,62.2220196 C127.47993,62.2220196 127.861986,61.9193235 128.171535,61.130451 L128.394634,60.5464804 L125.529676,54.6313333 L126.604268,54.6313333 L128.862211,59.3552549 L128.88731,59.3552549 L130.701845,54.6313333 L131.750408,54.6313333 Z" id="Fill-38" fill="#FFFFFF" mask="url(#mask-2)"></path>
                        <path d="M25.4908732,68.5145588 C24.8494648,67.9548039 24.1085915,67.5915686 22.9112958,67.5915686 C21.0595775,67.5915686 19.7879155,69.1572059 19.7879155,71.0404412 C19.7879155,73.0205392 21.0103099,74.4911765 23.034,74.4911765 C24.0100563,74.4911765 24.7750986,74.2480882 25.3309859,73.9193137 L25.3309859,71.5759804 L23.183662,71.5759804 L23.183662,70.665098 L26.3674648,70.665098 L26.3674648,74.4539216 C25.4295211,75.0481373 24.4543944,75.415098 22.9968169,75.415098 C20.2815211,75.415098 18.7142535,73.4955392 18.7142535,71.0404412 C18.7142535,68.6961765 20.3438028,66.6676471 22.9484789,66.6676471 C24.4051268,66.6676471 25.3058873,67.0821078 26.1694648,67.8104412 L25.4908732,68.5145588 Z" id="Fill-39" fill="#FFFFFF" mask="url(#mask-2)"></path>
                        <path d="M31.416,69.0849314 C31.5517183,69.0849314 31.6753521,69.0979706 31.8240845,69.1221863 L31.7497183,70.0693922 C31.6270141,70.0442451 31.4661972,70.0442451 31.3425634,70.0442451 C30.1824507,70.0442451 29.4545915,70.7260098 29.4545915,72.3521863 L29.4545915,75.291598 L28.4543662,75.291598 L28.4543662,69.2069412 L29.4545915,69.2069412 L29.4545915,70.1057157 L29.4908451,70.1057157 C29.8608169,69.5236078 30.3916056,69.0849314 31.416,69.0849314" id="Fill-40" fill="#FFFFFF" mask="url(#mask-2)"></path>
                        <path d="M37.9847662,72.2437745 C37.9847662,70.9808333 37.0338085,69.960049 35.7751606,69.960049 C34.4663155,69.960049 33.5646254,70.9808333 33.5646254,72.2437745 C33.5646254,73.5188235 34.502569,74.5396078 35.7751606,74.5396078 C37.070062,74.5396078 37.9847662,73.5188235 37.9847662,72.2437745 M32.540231,72.2437745 C32.540231,70.4806863 33.9104282,69.0845588 35.7751606,69.0845588 C37.6380338,69.0845588 39.0212451,70.4806863 39.0212451,72.2437745 C39.0212451,74.005 37.6380338,75.4132353 35.7751606,75.4132353 C33.9104282,75.4132353 32.540231,74.005 32.540231,72.2437745" id="Fill-41" fill="#FFFFFF" mask="url(#mask-2)"></path>
                        <polygon id="Fill-42" fill="#FFFFFF" mask="url(#mask-2)" points="39.8475465 69.2067549 40.8347577 69.2067549 42.4773211 73.9306765 42.5014901 73.9306765 44.1068704 69.2067549 44.9341944 69.2067549 46.5879127 73.9306765 46.6250958 73.9306765 48.1802789 69.2067549 49.1563352 69.2067549 47.0815183 75.3407745 46.1556592 75.3407745 44.5261099 70.6531765 44.5019408 70.6531765 42.9095746 75.3407745 41.9967296 75.3407745"></polygon>
                        <path d="M50.6247887,75.2912255 L51.6240845,75.2912255 L51.6240845,69.2065686 L50.6247887,69.2065686 L50.6247887,75.2912255 Z M51.1304789,67.8467647 C50.7233239,67.8467647 50.3896056,67.5179902 50.3896056,67.1175 C50.3896056,66.730049 50.7233239,66.4003431 51.1304789,66.4003431 C51.5255493,66.4003431 51.8713521,66.730049 51.8713521,67.1175 C51.8713521,67.5179902 51.5255493,67.8467647 51.1304789,67.8467647 L51.1304789,67.8467647 Z" id="Fill-43" fill="#FFFFFF" mask="url(#mask-2)"></path>
                        <path d="M53.7721521,69.2067549 L54.7723775,69.2067549 L54.7723775,70.104598 L54.808631,70.104598 C55.2288,69.4498431 55.9073915,69.0847451 56.8211662,69.0847451 C58.2527155,69.0847451 59.1172225,70.0934216 59.1172225,71.5621961 L59.1172225,75.2914118 L58.1169972,75.2914118 L58.1169972,71.7577843 C58.1169972,70.6634216 57.5620394,69.9835196 56.5116169,69.9835196 C55.5002366,69.9835196 54.7723775,70.8217549 54.7723775,71.9403333 L54.7723775,75.2914118 L53.7721521,75.2914118 L53.7721521,69.2067549 Z" id="Fill-44" fill="#FFFFFF" mask="url(#mask-2)"></path>
                        <path d="M66.1035549,72.0617843 C66.1035549,70.8593824 65.0308225,69.9727157 63.8939493,69.9727157 C62.7468507,69.9727157 61.8330761,70.8454118 61.8330761,72.0729608 C61.8330761,73.3126176 62.7840338,74.1750686 63.8939493,74.1750686 C65.0308225,74.1750686 66.1035549,73.2632549 66.1035549,72.0617843 M61.0308507,76.7745294 L61.5123718,76.0331569 C62.2411606,76.5668333 63.0062028,76.7978137 63.8707099,76.7978137 C65.2158085,76.7978137 66.0542873,76.0806569 66.0542873,74.6975686 L66.0542873,73.9571275 L66.0180338,73.9571275 C65.4863155,74.6612451 64.7584563,75.0617353 63.7712451,75.0617353 C62.2783437,75.0617353 60.7965972,73.8472255 60.7965972,72.0729608 C60.7965972,70.2875196 62.3015831,69.0851176 63.7833296,69.0851176 C64.8198085,69.0851176 65.5244282,69.4986471 66.0180338,70.1543333 L66.0542873,70.1543333 L66.0542873,69.2071275 L67.0545127,69.2071275 L67.0545127,74.6612451 C67.0545127,76.543549 65.8562873,77.6602647 63.8818648,77.6602647 C62.8453859,77.6602647 61.9204563,77.4050686 61.0308507,76.7745294" id="Fill-45" fill="#FFFFFF" mask="url(#mask-2)"></path>
                        <path d="M79.2383915,68.5145588 C78.5969831,67.9548039 77.8551803,67.5915686 76.6597437,67.5915686 C74.8070958,67.5915686 73.5354338,69.1572059 73.5354338,71.0404412 C73.5354338,73.0205392 74.7587577,74.4911765 76.7815183,74.4911765 C77.7566451,74.4911765 78.5226169,74.2480882 79.0785042,73.9193137 L79.0785042,71.5759804 L76.9302507,71.5759804 L76.9302507,70.665098 L80.1149831,70.665098 L80.1149831,74.4539216 C79.1770394,75.0481373 78.2019127,75.415098 76.7452648,75.415098 C74.029969,75.415098 72.4608423,73.4955392 72.4608423,71.0404412 C72.4608423,68.6961765 74.0913211,66.6676471 76.6950676,66.6676471 C78.1526451,66.6676471 79.0534056,67.0821078 79.9169831,67.8104412 L79.2383915,68.5145588 Z" id="Fill-46" fill="#FFFFFF" mask="url(#mask-2)"></path>
                        <path d="M85.1635183,69.0849314 C85.2992366,69.0849314 85.4238,69.0979706 85.5706732,69.1221863 L85.4972366,70.0693922 C85.3745324,70.0442451 85.2127859,70.0442451 85.0900817,70.0442451 C83.9290394,70.0442451 83.2011803,70.7260098 83.2011803,72.3521863 L83.2011803,75.291598 L82.2000254,75.291598 L82.2000254,69.2069412 L83.2011803,69.2069412 L83.2011803,70.1057157 L83.2383634,70.1057157 C83.6074056,69.5236078 84.1391239,69.0849314 85.1635183,69.0849314" id="Fill-47" fill="#FFFFFF" mask="url(#mask-2)"></path>
                        <path d="M91.139493,71.8662892 C91.0400282,70.8101127 90.4107042,69.9113382 89.2375775,69.9113382 C88.2131831,69.9113382 87.4472113,70.7244265 87.324507,71.8662892 L91.139493,71.8662892 Z M86.286169,72.2434951 C86.286169,70.4822696 87.533662,69.0852108 89.2608169,69.0852108 C91.1143944,69.0852108 92.1629577,70.5185931 92.1629577,72.3040343 C92.1629577,72.4986912 92.1629577,72.5452598 92.1508732,72.6449167 L87.324507,72.6449167 C87.4472113,73.8696716 88.3247324,74.5514363 89.3863099,74.5514363 C90.2257183,74.5514363 90.8169296,74.1993775 91.3235493,73.6647696 L91.9668169,74.260848 C91.3114648,74.9761422 90.5352676,75.4138873 89.3612113,75.4138873 C87.6442817,75.4138873 86.286169,74.1500147 86.286169,72.2434951 L86.286169,72.2434951 Z" id="Fill-48" fill="#FFFFFF" mask="url(#mask-2)"></path>
                        <path d="M98.2865493,71.8662892 C98.1889437,70.8101127 97.5586901,69.9113382 96.3855634,69.9113382 C95.361169,69.9113382 94.5942676,70.7244265 94.4715634,71.8662892 L98.2865493,71.8662892 Z M93.4341549,72.2434951 C93.4341549,70.4822696 94.6825775,69.0852108 96.4088028,69.0852108 C98.2623803,69.0852108 99.3109437,70.5185931 99.3109437,72.3040343 C99.3109437,72.4986912 99.3109437,72.5452598 99.2988592,72.6449167 L94.4715634,72.6449167 C94.5942676,73.8696716 95.4717887,74.5514363 96.5342958,74.5514363 C97.3727746,74.5514363 97.9649155,74.1993775 98.4706056,73.6647696 L99.1129437,74.260848 C98.4585211,74.9761422 97.6813944,75.4138873 96.5082676,75.4138873 C94.7922676,75.4138873 93.4341549,74.1500147 93.4341549,72.2434951 L93.4341549,72.2434951 Z" id="Fill-49" fill="#FFFFFF" mask="url(#mask-2)"></path>
                        <path d="M106.285099,74.2592647 C105.619521,74.940098 104.903746,75.4132353 103.72969,75.4132353 C101.915155,75.4132353 100.582141,74.005 100.582141,72.2428431 C100.582141,70.4937255 101.915155,69.0845588 103.72969,69.0845588 C104.903746,69.0845588 105.654845,69.5465196 106.234901,70.1416667 L105.531211,70.7740686 C105.063634,70.2757843 104.508676,69.9591176 103.741775,69.9591176 C102.51938,69.9591176 101.607465,70.9435784 101.607465,72.2428431 C101.607465,73.5551471 102.496141,74.5386765 103.741775,74.5386765 C104.520761,74.5386765 105.148225,74.162402 105.630676,73.6529412 L106.285099,74.2592647 Z" id="Fill-50" fill="#FFFFFF" mask="url(#mask-2)"></path>
                        <path d="M112.086777,71.8662892 C111.989172,70.8101127 111.359848,69.9113382 110.185792,69.9113382 C109.162327,69.9113382 108.395425,70.7244265 108.272721,71.8662892 L112.086777,71.8662892 Z M107.235313,72.2434951 C107.235313,70.4822696 108.482806,69.0852108 110.209961,69.0852108 C112.062608,69.0852108 113.111172,70.5185931 113.111172,72.3040343 C113.111172,72.4986912 113.111172,72.5452598 113.100017,72.6449167 L108.272721,72.6449167 C108.395425,73.8696716 109.272017,74.5514363 110.334524,74.5514363 C111.173932,74.5514363 111.766073,74.1993775 112.272693,73.6647696 L112.915961,74.260848 C112.259679,74.9761422 111.482552,75.4138873 110.310355,75.4138873 C108.593425,75.4138873 107.235313,74.1500147 107.235313,72.2434951 L107.235313,72.2434951 Z" id="Fill-51" fill="#FFFFFF" mask="url(#mask-2)"></path>
                    </g>
                </g>
                <g id="Group-67" transform="translate(36.000000, 143.000000)">
                    <polygon id="Fill-1" fill="#FFFFFF" points="40.8648605 95.4081143 42.0921395 95.4081143 42.0921395 89.9589714 40.8648605 89.9589714"></polygon>
                    <g id="Group-66" transform="translate(0.000000, 0.629829)">
                        <path d="M43.2060349,93.2459429 C43.2060349,92.5922286 43.4931977,92.1716571 44.060686,91.9053714 L44.060686,91.8893714 C43.6481744,91.6813714 43.3689884,91.3385143 43.3689884,90.7613714 C43.3689884,89.9362286 44.1529884,89.2516571 45.3027791,89.2516571 C46.459407,89.2516571 47.2354302,89.9362286 47.2354302,90.7613714 C47.2354302,91.3385143 46.9482674,91.6813714 46.5368953,91.8893714 L46.5368953,91.9053714 C47.0804535,92.2025143 47.3983837,92.5922286 47.3983837,93.2459429 C47.3983837,94.2116571 46.5129651,94.8562286 45.3027791,94.8562286 C44.0982907,94.8562286 43.2060349,94.2116571 43.2060349,93.2459429 M46.2189651,93.1522286 C46.2189651,92.7316571 45.8383605,92.5065143 45.3027791,92.5065143 C44.7671977,92.5065143 44.386593,92.7316571 44.386593,93.1522286 C44.386593,93.5419429 44.7193372,93.7750857 45.3027791,93.7750857 C45.8930581,93.7750857 46.2189651,93.5419429 46.2189651,93.1522286 M46.0788023,90.9339429 C46.0788023,90.6048 45.7916395,90.3328 45.3027791,90.3328 C44.8207558,90.3328 44.5256163,90.6048 44.5256163,90.9339429 C44.5256163,91.3076571 44.8367093,91.5625143 45.3027791,91.5625143 C45.775686,91.5625143 46.0788023,91.3076571 46.0788023,90.9339429" id="Fill-2" fill="#FFFFFF"></path>
                        <polygon id="Fill-4" fill="#FFFFFF" points="49.8118047 94.7794286 48.4375256 94.7794286 50.3861302 90.4422857 47.878014 90.4422857 47.878014 89.3291429 51.7296419 89.3291429 51.7296419 90.3954286"></polygon>
                        <g id="Group-8" transform="translate(51.279070, 89.142857)">
                            <mask id="mask-4" fill="white">
                                <use xlink:href="#path-3"></use>
                            </mask>
                            <g id="Clip-7"></g>
                            <path d="M2.10711395,4.09531429 C2.2393,4.42102857 2.52646279,4.60845714 2.8763,4.60845714 C3.33439302,4.60845714 3.6603,4.25874286 3.6603,3.76845714 C3.6603,3.30902857 3.38795116,2.94217143 2.82957907,2.94217143 C2.49569535,2.94217143 2.07634651,3.06788571 1.81995116,3.19931429 L1.2068814,2.7936 L1.3310907,0.186742857 L4.66195116,0.186742857 L4.66195116,1.25302857 L2.3635093,1.25302857 L2.33274186,1.99131429 C2.53443953,1.94674286 2.7748814,1.92274286 3.04723023,1.92274286 C4.10243953,1.92274286 4.92518372,2.56045714 4.92518372,3.81531429 C4.92518372,4.96731429 4.07167209,5.71474286 2.82160233,5.71474286 C1.92023023,5.71474286 1.26043953,5.28617143 0.981253488,4.46788571 L2.10711395,4.09531429 Z" id="Fill-6" fill="#FFFFFF" mask="url(#mask-4)"></path>
                        </g>
                        <path d="M37.2997116,38.3876571 L36.3026186,38.3876571 L36.3026186,40.9533714 L34.7881767,40.9533714 L34.7881767,34.2253714 L37.2609674,34.2253714 C38.6705721,34.2253714 39.8488512,34.8505143 39.8488512,36.3019429 C39.8488512,37.7625143 38.7275488,38.3876571 37.2997116,38.3876571 M37.2233628,35.5053714 L36.3026186,35.5053714 L36.3026186,37.1190857 L37.2324791,37.1190857 C37.7498279,37.1190857 38.2774326,36.9453714 38.2774326,36.3019429 C38.2774326,35.6379429 37.7885721,35.5053714 37.2233628,35.5053714" id="Fill-9" fill="#FFFFFF"></path>
                        <path d="M41.5051651,35.4267429 C41.044793,35.4267429 40.6710256,35.0530286 40.6710256,34.5821714 C40.6710256,34.1193143 41.044793,33.7364571 41.5051651,33.7364571 C41.9746535,33.7364571 42.3484209,34.1193143 42.3484209,34.5821714 C42.3484209,35.0530286 41.9746535,35.4267429 41.5051651,35.4267429 L41.5051651,35.4267429 Z M40.7770023,40.9536 L42.2333279,40.9536 L42.2333279,36.0530286 L40.7770023,36.0530286 L40.7770023,40.9536 Z" id="Fill-11" fill="#FFFFFF"></path>
                        <path d="M43.2861442,38.5026286 C43.2861442,37.0603429 44.2638651,35.9552 45.6723302,35.9552 C47.282493,35.9552 48.0209116,37.2249143 48.0209116,38.6100571 C48.0209116,38.7232 48.0209116,38.8294857 48.0106558,38.9940571 L44.7914698,38.9940571 C44.8393302,39.5986286 45.1937256,39.8866286 45.7976791,39.8866286 C46.2477953,39.8866286 46.6215628,39.7232 46.9280977,39.3574857 L47.7816093,40.1380571 C47.3303535,40.7049143 46.6409349,41.0500571 45.7680512,41.0500571 C44.3208419,41.0500571 43.2861442,40.0694857 43.2861442,38.5026286 L43.2861442,38.5026286 Z M46.545214,38.0809143 C46.4973535,37.4649143 46.219307,37.0706286 45.6529581,37.0706286 C45.0980047,37.0706286 44.8290744,37.4546286 44.7720977,38.0809143 L46.545214,38.0809143 Z" id="Fill-13" fill="#FFFFFF"></path>
                        <path d="M52.0074605,35.9557714 C52.0553209,35.9557714 52.1316698,35.9649143 52.189786,35.9649143 L52.1134372,37.2723429 C51.9014837,37.2060571 51.6428093,37.1866286 51.4513674,37.1866286 C50.8770419,37.1866286 50.5317628,37.4837714 50.5317628,38.3294857 L50.5317628,40.9534857 L49.0845535,40.9534857 L49.0845535,36.0517714 L50.5317628,36.0517714 L50.5317628,36.5512 L50.5511349,36.5512 C50.7904372,36.2346286 51.2405535,35.9557714 52.0074605,35.9557714" id="Fill-15" fill="#FFFFFF"></path>
                        <path d="M57.2326837,40.1566857 C56.7631953,40.6755429 56.1877302,41.0492571 55.2202651,41.0492571 C53.7730558,41.0492571 52.7087302,40.0126857 52.7087302,38.5029714 C52.7087302,37.0138286 53.7628,35.9555429 55.2396372,35.9555429 C56.1501256,35.9555429 56.734707,36.2812571 57.1848233,36.7921143 L56.2458465,37.6858286 C55.9575442,37.3784 55.6612651,37.2149714 55.2681256,37.2149714 C54.6163116,37.2149714 54.1559395,37.7144 54.1559395,38.5029714 C54.1559395,39.3201143 54.6356837,39.7818286 55.296614,39.7818286 C55.7273581,39.7818286 55.9962884,39.6172571 56.3028233,39.2904 L57.2326837,40.1566857 Z" id="Fill-17" fill="#FFFFFF"></path>
                        <path d="M57.743993,38.5026286 C57.743993,37.0603429 58.721714,35.9552 60.1301791,35.9552 C61.7403419,35.9552 62.4787605,37.2249143 62.4787605,38.6100571 C62.4787605,38.7232 62.4787605,38.8294857 62.4685047,38.9940571 L59.2493186,38.9940571 C59.2971791,39.5986286 59.6515744,39.8866286 60.2555279,39.8866286 C60.7056442,39.8866286 61.0794116,39.7232 61.3859465,39.3574857 L62.2394581,40.1380571 C61.7882023,40.7049143 61.0987837,41.0500571 60.2270395,41.0500571 C58.7798302,41.0500571 57.743993,40.0694857 57.743993,38.5026286 L57.743993,38.5026286 Z M61.0030628,38.0809143 C60.9552023,37.4649143 60.6771558,37.0706286 60.1119465,37.0706286 C59.5558535,37.0706286 59.2869233,37.4546286 59.2299465,38.0809143 L61.0030628,38.0809143 Z" id="Fill-19" fill="#FFFFFF"></path>
                        <path d="M37.5150837,52.6142857 L35.2052465,52.6142857 L35.2052465,45.8851429 L37.5150837,45.8851429 C39.7007116,45.8851429 41.4259674,47.028 41.4259674,49.2497143 C41.4259674,51.4702857 39.7007116,52.6142857 37.5150837,52.6142857 M37.4957116,47.2691429 L36.7196884,47.2691429 L36.7196884,51.2302857 L37.5344558,51.2302857 C38.8563163,51.2302857 39.8534093,50.6428571 39.8534093,49.2497143 C39.8534093,47.8565714 38.8187116,47.2691429 37.4957116,47.2691429" id="Fill-21" fill="#FFFFFF"></path>
                        <path d="M42.353093,50.1622857 C42.353093,48.72 43.330814,47.6148571 44.7392791,47.6148571 C46.3494419,47.6148571 47.0878605,48.8845714 47.0878605,50.2685714 C47.0878605,50.3828571 47.0878605,50.4891429 47.0776047,50.6537143 L43.8584186,50.6537143 C43.9062791,51.2582857 44.2606744,51.5474286 44.8646279,51.5474286 C45.3147442,51.5474286 45.6885116,51.3828571 45.9950465,51.0182857 L46.8485581,51.7977143 C46.3973023,52.3645714 45.7078837,52.7097143 44.835,52.7097143 C43.3877907,52.7097143 42.353093,51.7291429 42.353093,50.1622857 L42.353093,50.1622857 Z M45.6121628,49.7405714 C45.5643023,49.1257143 45.2862558,48.7302857 44.719907,48.7302857 C44.1649535,48.7302857 43.8960233,49.1142857 43.8390465,49.7405714 L45.6121628,49.7405714 Z" id="Fill-23" fill="#FFFFFF"></path>
                        <path d="M51.0748651,47.6153143 C51.1227256,47.6153143 51.1990744,47.6244571 51.2571907,47.6244571 L51.1808419,48.9318857 C50.9688884,48.8644571 50.710214,48.8461714 50.5187721,48.8461714 C49.9444465,48.8461714 49.5991674,49.1433143 49.5991674,49.9890286 L49.5991674,52.6130286 L48.1519581,52.6130286 L48.1519581,47.7113143 L49.5991674,47.7113143 L49.5991674,48.2107429 L49.6185395,48.2107429 C49.8578419,47.8941714 50.3079581,47.6153143 51.0748651,47.6153143" id="Fill-25" fill="#FFFFFF"></path>
                        <path d="M51.7803512,50.1622857 C51.7803512,48.72 52.7580721,47.6148571 54.1665372,47.6148571 C55.7767,47.6148571 56.5151186,48.8845714 56.5151186,50.2685714 C56.5151186,50.3828571 56.5151186,50.4891429 56.5048628,50.6537143 L53.2856767,50.6537143 C53.3335372,51.2582857 53.6879326,51.5474286 54.291886,51.5474286 C54.7420023,51.5474286 55.1157698,51.3828571 55.4223047,51.0182857 L56.2758163,51.7977143 C55.8245605,52.3645714 55.1351419,52.7097143 54.2622581,52.7097143 C52.8150488,52.7097143 51.7803512,51.7291429 51.7803512,50.1622857 L51.7803512,50.1622857 Z M55.0394209,49.7405714 C54.9915605,49.1257143 54.713514,48.7302857 54.1471651,48.7302857 C53.5922116,48.7302857 53.3232814,49.1142857 53.2663047,49.7405714 L55.0394209,49.7405714 Z" id="Fill-27" fill="#FFFFFF"></path>
                        <path d="M57.3278349,50.1622857 C57.3278349,48.72 58.3055558,47.6148571 59.7140209,47.6148571 C61.3241837,47.6148571 62.0626023,48.8845714 62.0626023,50.2685714 C62.0626023,50.3828571 62.0626023,50.4891429 62.0523465,50.6537143 L58.8331605,50.6537143 C58.8810209,51.2582857 59.2354163,51.5474286 59.8393698,51.5474286 C60.289486,51.5474286 60.6632535,51.3828571 60.9697884,51.0182857 L61.8233,51.7977143 C61.3720442,52.3645714 60.6826256,52.7097143 59.8097419,52.7097143 C58.3625326,52.7097143 57.3278349,51.7291429 57.3278349,50.1622857 L57.3278349,50.1622857 Z M60.5869047,49.7405714 C60.5390442,49.1257143 60.2609977,48.7302857 59.6946488,48.7302857 C59.1396953,48.7302857 58.8707651,49.1142857 58.8137884,49.7405714 L60.5869047,49.7405714 Z" id="Fill-29" fill="#FFFFFF"></path>
                        <path d="M37.6641349,64.2738286 L40.5779256,57.5161143 L41.899786,57.5161143 L44.8044605,64.2738286 L43.1658093,64.2738286 L42.5994605,62.8898286 L39.8303907,62.8898286 L39.2651814,64.2738286 L37.6641349,64.2738286 Z M40.3386233,61.6384 L42.0923674,61.6384 L41.2297395,59.4772571 L41.2103674,59.4772571 L40.3386233,61.6384 Z" id="Fill-31" fill="#FFFFFF"></path>
                        <mask id="mask-6" fill="white">
                            <use xlink:href="#path-5"></use>
                        </mask>
                        <g id="Clip-34"></g>
                        <polygon id="Fill-33" fill="#FFFFFF" mask="url(#mask-6)" points="45.6178605 64.2742857 47.0650698 64.2742857 47.0650698 57.064 45.6178605 57.064"></polygon>
                        <path d="M49.8239977,63.7637714 L49.8046256,63.7637714 L49.8046256,64.2734857 L48.3574163,64.2734857 L48.3574163,57.0643429 L49.8046256,57.0643429 L49.8046256,59.8814857 L49.8239977,59.8814857 C50.1499047,59.5054857 50.6000209,59.2757714 51.2427186,59.2757714 C52.3549047,59.2757714 53.427207,60.0826286 53.427207,61.8220571 C53.427207,63.5523429 52.3355326,64.3694857 51.1948581,64.3694857 C50.5624163,64.3694857 50.1305326,64.1294857 49.8239977,63.7637714 M51.9708814,61.8220571 C51.9708814,61.0152 51.4250442,60.5340571 50.8393233,60.5340571 C50.2547419,60.5340571 49.7191605,60.9957714 49.7191605,61.8220571 C49.7191605,62.6197714 50.2547419,63.1009143 50.8393233,63.1009143 C51.4729047,63.1009143 51.9708814,62.6494857 51.9708814,61.8220571" id="Fill-35" fill="#FFFFFF" mask="url(#mask-6)"></path>
                        <path d="M57.3405977,61.352 L57.3405977,61.1588571 C57.3405977,60.6411429 56.9474581,60.4194286 56.4107372,60.4194286 C55.9993651,60.4194286 55.5105047,60.5245714 54.9737837,60.8525714 L54.4564349,59.8708571 C54.9635279,59.5245714 55.7304349,59.2765714 56.4585977,59.2765714 C57.694993,59.2765714 58.7308302,59.7371429 58.7308302,61.1794286 L58.7308302,64.2742857 L57.3405977,64.2742857 L57.3405977,63.6971429 L57.3212256,63.6971429 C57.0431791,64.0822857 56.4973419,64.3702857 55.9218767,64.3702857 C55.0125279,64.3702857 54.1966209,63.9371429 54.1966209,62.832 C54.1966209,61.7257143 55.2609465,61.2354286 56.3059,61.2354286 C56.631807,61.2354286 57.0055744,61.2754286 57.3405977,61.352 L57.3405977,61.352 Z M57.3405977,62.304 C57.0910395,62.2171429 56.7469,62.1588571 56.4301093,62.1588571 C56.0369698,62.1588571 55.5481093,62.3234286 55.5481093,62.8034286 C55.5481093,63.1965714 55.8546442,63.4 56.2865279,63.4 C56.7560163,63.4 57.3405977,63.0731429 57.3405977,62.4091429 L57.3405977,62.304 Z" id="Fill-36" fill="#FFFFFF" mask="url(#mask-6)"></path>
                        <polygon id="Fill-37" fill="#FFFFFF" mask="url(#mask-6)" points="14.1223698 80.9501714 18.3876488 76.8404571 19.551114 78.0576 15.2869744 82.1661714 16.7683698 83.7136 15.6630209 84.7776 11.5287884 80.4598857 12.6341372 79.3970286"></polygon>
                        <polygon id="Fill-38" fill="#FFFFFF" mask="url(#mask-6)" points="10.2229953 78.8709714 9.27946047 77.4755429 11.647414 75.8641143 9.95064651 73.3578286 7.58269302 74.9692571 6.63915814 73.5726857 12.8006233 69.3795429 13.7452977 70.7761143 11.2098326 72.5006857 12.9054605 75.0069714 15.4409256 73.2824 16.3844605 74.6778286"></polygon>
                        <polygon id="Fill-39" fill="#FFFFFF" mask="url(#mask-6)" points="5.31376512 71.0606857 3.14067209 66.1578286 4.53090465 65.5384 6.02027674 68.9018286 7.26464884 68.3464 5.93823023 65.3544 7.2897186 64.7521143 8.61613721 67.7452571 10.0348581 67.1121143 8.50560233 63.6618286 9.90495116 63.0378286 12.1167884 68.0298286"></polygon>
                        <path d="M8.7300907,59.5718857 L0.830834884,57.5707429 L0.596090698,56.1170286 L7.46178837,51.7261714 L7.7535093,53.5273143 L6.34162558,54.3947429 L6.83390465,57.4381714 L8.44634651,57.8130286 L8.7300907,59.5718857 Z M5.3787186,57.1010286 L5.06648605,55.1741714 L2.85692791,56.5067429 L2.86148605,56.5273143 L5.3787186,57.1010286 Z" id="Fill-40" fill="#FFFFFF" mask="url(#mask-6)"></path>
                        <polygon id="Fill-41" fill="#FFFFFF" mask="url(#mask-6)" points="5.95862791 47.1098286 5.9552093 47.1955429 2.7702093 49.1921143 2.7702093 49.2138286 7.50839535 49.4195429 7.43774419 51.0606857 0 50.7372571 0.0740697674 49.0218286 3.25793023 47.0366857 0.256395349 44.7909714 0.331604651 43.0424 7.77048837 43.3669714 7.69755814 45.0504 2.95823256 44.8446857 2.95709302 44.8652571"></polygon>
                        <polygon id="Fill-42" fill="#FFFFFF" mask="url(#mask-6)" points="0.861374419 40.1398857 2.11258372 34.9238857 3.5917 35.2793143 2.7324907 38.8576 4.05663023 39.1776 4.8201186 35.9936 6.25821163 36.3398857 5.49472326 39.5238857 7.00460698 39.8884571 7.88432791 36.2164571 9.3737 36.5764571 8.0997 41.8861714"></polygon>
                        <path d="M8.18265814,31.9021714 L7.8351,32.7158857 L10.446914,33.8358857 L9.78484419,35.3867429 L2.93965814,32.4484571 L4.01879767,29.9181714 C4.63414651,28.4758857 5.78507674,27.5421714 7.26191395,28.1753143 C8.25900698,28.6027429 8.64872791,29.3981714 8.61226279,30.2998857 L12.1710302,29.7947429 L11.4337512,31.5216 L8.18265814,31.9021714 Z M5.30305349,30.5147429 L4.90193721,31.4553143 L6.54400698,32.1616 L6.95082093,31.2107429 C7.17644884,30.6804571 7.23000698,30.0656 6.57591395,29.7833143 C5.90016977,29.4953143 5.55033256,29.9353143 5.30305349,30.5147429 L5.30305349,30.5147429 Z" id="Fill-43" fill="#FFFFFF" mask="url(#mask-6)"></path>
                        <polygon id="Fill-44" fill="#FFFFFF" mask="url(#mask-6)" points="6.29695581 25.2749714 7.1459093 23.8212571 13.572886 27.5926857 12.7239326 29.0475429"></polygon>
                        <path d="M17.3049767,20.3765714 C17.6012558,21.4565714 17.2742093,22.5937143 16.628093,23.428 C15.1820233,25.3011429 12.8858605,25.5537143 11.1708605,24.22 C9.45586047,22.8862857 9.11513953,20.6097143 10.5555116,18.7468571 C11.1879535,17.9285714 12.0722326,17.3068571 13.1069302,17.3274286 L13.1422558,18.9354286 C12.6613721,18.9674286 12.1633953,19.1742857 11.7987442,19.6462857 C11.0432326,20.6257143 11.137814,21.9811429 12.2397442,22.8371429 C13.3405349,23.6931429 14.6817674,23.4405714 15.3985349,22.5125714 C15.8030698,21.9891429 15.9022093,21.3388571 15.7574884,20.7937143 L17.3049767,20.3765714 Z" id="Fill-45" fill="#FFFFFF" mask="url(#mask-6)"></path>
                        <path d="M18.3772791,20.9534857 L15.8326977,13.1923429 L16.9300698,12.2152 L24.304,15.6780571 L22.9433953,16.8883429 L21.4574419,16.1580571 L19.159,18.2049143 L19.7059767,19.7706286 L18.3772791,20.9534857 Z M18.6621628,16.7912 L20.1184884,15.4963429 L17.8143488,14.3386286 L17.7983953,14.3523429 L18.6621628,16.7912 Z" id="Fill-46" fill="#FFFFFF" mask="url(#mask-6)"></path>
                        <polygon id="Fill-47" fill="#FFFFFF" mask="url(#mask-6)" points="27.9948395 10.0874286 25.7214674 6.18114286 27.1356302 5.35371429 30.8892581 11.8017143 29.6403279 12.5342857 23.9380953 10.3754286 23.9198628 10.3868571 26.3060488 14.4862857 24.8827698 15.3182857 21.1291419 8.87142857 22.5524209 8.03714286 27.9674907 10.1045714"></polygon>
                        <path d="M41.1879186,7.24708571 C40.7651512,8.28251429 39.8147791,8.98422857 38.7960349,9.25165714 C36.5112674,9.84822857 34.537593,8.64594286 33.9894767,6.5408 C33.4413605,4.43337143 34.5558256,2.42194286 36.8303372,1.82765714 C37.8285698,1.5648 38.9077093,1.6128 39.7145,2.26308571 L38.7652674,3.55794286 C38.3652907,3.28822857 37.8456628,3.14765714 37.2690581,3.3008 C36.0748256,3.61165714 35.3261512,4.74651429 35.6782674,6.09737143 C36.0303837,7.45051429 37.2462674,8.06994286 38.3789651,7.7728 C39.0159651,7.6048 39.4922907,7.14994286 39.7088023,6.63108571 L41.1879186,7.24708571 Z" id="Fill-48" fill="#FFFFFF" mask="url(#mask-6)"></path>
                        <path d="M41.4928581,4.62091429 C41.3492767,2.4392 42.8648581,0.681485714 45.2533233,0.523771429 C47.5346721,0.370628571 49.3636256,1.90891429 49.507207,4.08948571 C49.6496488,6.2712 48.1238116,8.03005714 45.736486,8.18891429 C43.4539977,8.33977143 41.6364395,6.80262857 41.4928581,4.62091429 M47.7659977,4.20605714 C47.6759744,2.83234286 46.6492535,1.97062857 45.3330907,2.05748571 C44.0169279,2.14434286 43.1429047,3.13177143 43.2340674,4.50434286 C43.3240907,5.8792 44.3405558,6.74091429 45.6567186,6.65405714 C46.9728814,6.56605714 47.8560209,5.57862857 47.7659977,4.20605714" id="Fill-49" fill="#FFFFFF" mask="url(#mask-6)"></path>
                        <polygon id="Fill-50" fill="#FFFFFF" mask="url(#mask-6)" points="51.7364791 0.578514286 53.385386 0.765942857 52.7221767 6.63794286 56.0826651 7.01965714 55.9083163 8.56594286 50.8989209 7.99908571"></polygon>
                        <polygon id="Fill-51" fill="#FFFFFF" mask="url(#mask-6)" points="58.6354512 1.53942857 60.2410558 1.96342857 58.7402884 7.68 62.011893 8.54285714 61.6164744 10.0491429 56.7404047 8.76228571"></polygon>
                        <polygon id="Fill-52" fill="#FFFFFF" mask="url(#mask-6)" points="65.3630372 3.48811429 70.2721535 5.62411429 69.6659209 7.02411429 66.2997349 5.55897143 65.7573163 6.81154286 68.7531535 8.11554286 68.1651535 9.47554286 65.1693163 8.17154286 64.5505488 9.60125714 68.0056186 11.1041143 67.3959674 12.5121143 62.399107 10.3395429"></polygon>
                        <path d="M75.6789047,11.5070857 C75.5444395,10.8808 75.4008581,10.4408 74.7000442,9.97565714 C73.7063698,9.31622857 72.3651372,9.51394286 71.5959512,10.6796571 C70.8279047,11.8442286 71.1446953,13.1436571 72.130393,13.7950857 C72.733207,14.1962286 73.1616721,14.3002286 73.5069512,14.3390857 L74.1929512,13.2968 L73.0750674,12.5550857 L73.8556488,11.3722286 L76.3216023,13.0076571 L74.303486,16.0682286 C73.1172302,15.9722286 72.243207,15.7139429 71.2848581,15.0773714 C69.3248581,13.7768 68.9442535,11.5310857 70.1407651,9.71508571 C71.3384163,7.89908571 73.5753233,7.38822857 75.5626721,8.70594286 C76.5563465,9.36537143 77.0224163,10.1093714 77.2765326,11.1345143 L75.6789047,11.5070857 Z" id="Fill-53" fill="#FFFFFF" mask="url(#mask-6)"></path>
                        <polygon id="Fill-54" fill="#FFFFFF" mask="url(#mask-6)" points="80.0401326 12.1857143 83.9065744 15.8931429 82.8559233 16.996 80.2042256 14.452 79.2629698 15.4394286 81.6229465 17.7022857 80.6019233 18.7731429 78.2419465 16.5114286 77.1685047 17.636 79.889714 20.2451429 78.831086 21.3548571 74.8962721 17.5822857"></polygon>
                        <path d="M84.6811163,22.5216 C86.548814,21.3947429 88.8005349,21.9398857 90.0346512,23.9958857 C91.2140698,25.9616 90.6898837,28.2953143 88.822186,29.4210286 C86.9533488,30.5490286 84.6970698,29.9936 83.4629535,27.9376 C82.2835349,25.9741714 82.8134186,23.6496 84.6811163,22.5216 M87.9219535,27.9238857 C89.0979535,27.2130286 89.3919535,25.9033143 88.7116512,24.7707429 C88.0313488,23.6381714 86.7562093,23.3113143 85.5802093,24.0210286 C84.4053488,24.7307429 84.1056512,26.0313143 84.7859535,27.1638857 C85.4662558,28.2987429 86.747093,28.6324571 87.9219535,27.9238857" id="Fill-55" fill="#FFFFFF" mask="url(#mask-6)"></path>
                        <polygon id="Fill-56" fill="#FFFFFF" mask="url(#mask-6)" points="92.1220512 31.9524571 90.7865163 32.4507429 91.8280512 35.2598857 90.4332605 35.7798857 89.390586 32.9718857 86.580493 34.0210286 85.9947721 32.4416 92.9710047 29.8358857 94.8216093 34.8256 93.3869349 35.3593143"></polygon>
                        <path d="M94.6514767,46.2906286 C95.0491744,45.7889143 95.2964535,45.3980571 95.2098488,44.5592 C95.0867791,43.3706286 94.0828488,42.4574857 92.6971744,42.6003429 C91.3103605,42.7443429 90.512686,43.8152 90.6346163,44.9923429 C90.7098256,45.7146286 90.9001279,46.1146286 91.0904302,46.4049143 L92.3291047,46.2746286 L92.1900814,44.9374857 L93.597407,44.7912 L93.9039419,47.7432 L90.2631279,48.1214857 C89.5839651,47.1397714 89.2295698,46.2974857 89.1110581,45.1512 C88.8683372,42.8060571 90.3577093,41.0849143 92.5171279,40.8597714 C94.675407,40.6357714 96.4895465,42.0437714 96.735686,44.4209143 C96.8587558,45.6094857 96.5818488,46.4449143 95.9528256,47.2917714 L94.6514767,46.2906286 Z" id="Fill-57" fill="#FFFFFF" mask="url(#mask-6)"></path>
                        <path d="M92.1153279,52.3140571 L92.1825605,51.4317714 L89.3519558,51.2123429 L89.4807233,49.5300571 L96.904793,50.1049143 L96.6939791,52.8500571 C96.5731884,54.4134857 95.7834907,55.6694857 94.1813047,55.5449143 C93.099886,55.4614857 92.4754209,54.8352 92.2224442,53.9700571 L89.0146535,55.5940571 L89.1582349,53.7209143 L92.1153279,52.3140571 Z M95.2866535,52.6980571 L95.3652814,51.6763429 L93.5830488,51.5403429 L93.5032814,52.5712 C93.4599791,53.1460571 93.6058395,53.7460571 94.3157698,53.8009143 C95.0473512,53.8569143 95.2376535,53.3266286 95.2866535,52.6980571 L95.2866535,52.6980571 Z" id="Fill-58" fill="#FFFFFF" mask="url(#mask-6)"></path>
                        <polygon id="Fill-59" fill="#FFFFFF" mask="url(#mask-6)" points="96.0403419 58.2269714 94.753807 63.4361143 93.2769698 63.0692571 94.1601093 59.4966857 92.8382488 59.1686857 92.0531093 62.3469714 90.6184349 61.9904 91.4035744 58.8121143 89.8959698 58.4384 88.9900395 62.1046857 87.504086 61.7332571 88.8122721 56.4326857"></polygon>
                        <polygon id="Fill-60" fill="#FFFFFF" mask="url(#mask-6)" points="93.9087279 65.8865143 91.786914 70.8122286 90.3909837 70.2065143 91.8461698 66.8282286 90.5961 66.2888 89.3015884 69.2933714 87.9444023 68.7059429 89.238914 65.7002286 87.8144953 65.0830857 86.3205651 68.5482286 84.9143791 67.9390857 87.0749372 62.9253714"></polygon>
                        <path d="M81.9017907,75.0070857 C81.518907,73.9545143 81.7513721,72.7945143 82.3268372,71.9110857 C83.6156512,69.9259429 85.882186,69.4848 87.7008837,70.6733714 C89.5184419,71.8608 90.0437674,74.1008 88.7606512,76.0768 C88.1977209,76.9430857 87.367,77.6356571 86.3345814,77.6985143 L86.1682093,76.1008 C86.6445349,76.0310857 87.1231395,75.7830857 87.447907,75.2825143 C88.1213721,74.2459429 87.9162558,72.9019429 86.7482326,72.1385143 C85.5802093,71.3762286 84.265186,71.7396571 83.6270465,72.7225143 C83.2669535,73.2768 83.2213721,73.9339429 83.4093953,74.4630857 L81.9017907,75.0070857 Z" id="Fill-61" fill="#FFFFFF" mask="url(#mask-6)"></path>
                        <polygon id="Fill-62" fill="#FFFFFF" mask="url(#mask-6)" points="85.7878326 79.9958857 82.1629721 83.9410286 81.0450884 82.9078857 83.5315535 80.2016 82.5299023 79.2770286 80.3169256 81.6850286 79.2298093 80.6804571 81.442786 78.2724571 80.3009721 77.2153143 77.7495535 79.9936 76.623693 78.9524571 80.3123674 74.9364571"></polygon>
                        <path d="M83.3802233,42.0461714 C83.273107,40.1684571 83.1375023,37.7993143 82.9722698,34.6804571 C80.8812233,32.3490286 79.3075256,30.5776 78.0665721,29.1776 C77.2540837,27.4964571 76.2239442,25.3616 74.8701767,22.5181714 C72.0042465,21.1467429 69.8767349,20.1113143 68.2187116,19.3021714 C66.8307581,18.0633143 65.0690372,16.4907429 62.744386,14.3936 C59.5707814,14.2244571 57.2096651,14.0838857 55.3681767,13.9741714 C53.6041767,13.3581714 51.3706884,12.5798857 48.4409442,11.5410286 C45.5465256,12.5661714 43.3130372,13.3501714 41.5228279,13.9787429 C39.6494326,14.0884571 37.2723628,14.2267429 34.1375023,14.3947429 C31.8595721,16.4496 30.0978512,18.0267429 28.687107,19.2953143 C27.0154093,20.1067429 24.8901767,21.1398857 22.0128512,22.5181714 C20.653386,25.3730286 19.622107,27.5067429 18.8118977,29.1764571 C17.5834791,30.5616 16.0234558,32.3227429 13.9096186,34.6804571 C13.7432465,37.8416 13.6042233,40.2118857 13.4936884,42.0656 C12.8817581,43.8313143 12.1057349,46.0724571 11.0653395,49.0244571 C12.1228279,52.0278857 12.8977116,54.2690286 13.499386,56.0176 C13.6087814,57.8827429 13.744386,60.2496 13.9096186,63.3696 C16.0348512,65.7387429 17.6051302,67.5124571 18.8289907,68.8964571 C19.6426186,70.5844571 20.6727581,72.7193143 22.0117116,75.5318857 C24.8423163,76.8873143 26.9755256,77.9238857 28.6517814,78.7376 C30.0499907,79.9856 31.8196884,81.5661714 34.1375023,83.6564571 C37.2666651,83.8244571 39.6289209,83.9616 41.4875023,84.0701714 C43.2446651,84.6827429 45.479293,85.4610286 48.4409442,86.5101714 C51.3877814,85.4667429 53.6189907,84.6884571 55.3829907,84.0713143 C57.2404326,83.9627429 59.6038279,83.8256 62.744386,83.6564571 C65.0690372,81.5593143 66.8364558,79.9821714 68.2312465,78.7364571 C69.9075023,77.9227429 72.0361535,76.8884571 74.8701767,75.5318857 C76.2262233,72.6850286 77.2552233,70.5536 78.0654326,68.8758857 C79.3029674,67.4804571 80.874386,65.7101714 82.9722698,63.3696 C83.1397814,60.2130286 83.2765256,57.8461714 83.3859209,55.9821714 C84.0035488,54.2073143 84.7807116,51.9684571 85.8176884,49.0244571 C84.7727349,46.0621714 83.9944326,43.8187429 83.3802233,42.0461714 L83.3802233,42.0461714 Z M82.0834326,55.7364571 C82.0834326,55.7364571 80.4903628,57.6107429 79.0556884,59.2107429 C79.238014,55.7604571 79.2106651,56.2976 79.2699209,55.1718857 C79.6163395,54.1890286 79.3474093,54.9524571 80.612293,51.3638857 C81.1820605,52.9844571 82.0834326,55.7364571 82.0834326,55.7364571 L82.0834326,55.7364571 Z M76.9612233,68.1376 C76.9612233,68.1376 74.4234791,69.4256 72.8395256,70.1844571 C74.4713395,66.7570286 74.1283395,67.4781714 74.5750372,66.5398857 C75.271293,65.7627429 74.7368512,66.3593143 77.2711767,63.5330286 C77.1788744,65.2781714 76.9612233,68.1376 76.9612233,68.1376 L76.9612233,68.1376 Z M67.4985256,77.6290286 C67.4985256,77.6290286 64.7602233,77.8393143 62.9062,77.9376 C65.7208512,75.4004571 65.1271535,75.9353143 65.9020372,75.2358857 C66.8501302,74.7833143 65.9521767,75.2130286 69.5405721,73.4941714 C68.7668279,75.1170286 67.4985256,77.6290286 67.4985256,77.6290286 L67.4985256,77.6290286 Z M55.1334326,82.7661714 C55.1334326,82.7661714 52.7962465,82.0073143 50.7724326,81.2896 C54.5272,79.9593143 53.5848047,80.2930286 54.5739209,79.9410286 C55.6120372,79.8861714 54.8132233,79.9296 58.5998977,79.7284571 C57.2746186,80.9227429 55.1334326,82.7661714 55.1334326,82.7661714 L55.1334326,82.7661714 Z M41.7495953,82.7661714 C41.7495953,82.7661714 39.5799209,80.8964571 38.2842698,79.7284571 C42.0686651,79.9284571 41.2709907,79.8861714 42.309107,79.9410286 C43.291386,80.2907429 42.5381535,80.0233143 46.1117349,81.2896 C44.4297814,81.8850286 41.7495953,82.7661714 41.7495953,82.7661714 L41.7495953,82.7661714 Z M29.3856419,77.6301714 C29.3856419,77.6301714 28.0934093,75.0701714 27.3424558,73.4941714 C30.4773163,74.9936 29.9782,74.7547429 30.9798512,75.2347429 C31.7524558,75.9318857 31.1587581,75.3970286 33.9779674,77.9387429 C32.1740837,77.8427429 29.3856419,77.6301714 29.3856419,77.6301714 L29.3856419,77.6301714 Z M19.9218047,68.1364571 C19.9218047,68.1364571 19.7109907,65.3913143 19.6118512,63.5341714 C22.1404791,66.3547429 21.6083163,65.7593143 22.3091302,66.5433143 C22.711386,67.3867429 22.3398977,66.6061714 24.0457814,70.1867429 C22.4698047,69.4324571 19.9218047,68.1364571 19.9218047,68.1364571 L19.9218047,68.1364571 Z M14.7995953,55.7376 C14.7995953,55.7376 15.6702,53.0701714 16.2707349,51.3638857 C17.5333395,54.9467429 17.2666884,54.1901714 17.613107,55.1741714 C17.6678047,56.2187429 17.6256419,55.4187429 17.8273395,59.2107429 C16.6570372,57.9056 14.7995953,55.7376 14.7995953,55.7376 L14.7995953,55.7376 Z M14.7995953,42.3124571 C14.7995953,42.3124571 16.5749907,40.2336 17.8273395,38.8393143 C17.6256419,42.6313143 17.6678047,41.8336 17.613107,42.8736 C17.2655488,43.8610286 17.5322,43.1044571 16.2707349,46.6861714 C15.6758977,44.9981714 14.7995953,42.3124571 14.7995953,42.3124571 L14.7995953,42.3124571 Z M19.9218047,29.9136 C19.9218047,29.9136 22.0766651,28.8073143 24.0435023,27.8656 C22.5655256,30.9696 22.7877349,30.5010286 22.3079907,31.5101714 C21.6048977,32.2941714 22.1461767,31.6896 19.6118512,34.5158857 C19.7087116,32.7056 19.9218047,29.9136 19.9218047,29.9136 L19.9218047,29.9136 Z M29.3856419,20.4210286 C29.3856419,20.4210286 31.8345023,20.2256 33.9745488,20.1124571 C32.6458512,21.3101714 32.3085488,21.6141714 30.9787116,22.8153143 C29.7730837,23.3924571 28.5754326,23.9673143 27.3424558,24.5558857 C28.1207581,22.9238857 29.3856419,20.4210286 29.3856419,20.4210286 L29.3856419,20.4210286 Z M41.7495953,15.2850286 C41.7495953,15.2850286 44.4252233,16.1650286 46.1083163,16.7604571 C42.537014,18.0256 43.289107,17.7593143 42.3102465,18.1078857 C41.1513395,18.1684571 41.5034558,18.1501714 38.2865488,18.3204571 C39.5878977,17.1478857 41.7495953,15.2850286 41.7495953,15.2850286 L41.7495953,15.2850286 Z M55.1345721,15.2861714 C55.1345721,15.2861714 57.2894326,17.1410286 58.5976186,18.3204571 C54.8143628,18.1193143 55.6120372,18.1627429 54.5727814,18.1078857 C53.6201302,17.7696 54.5135256,18.0850286 50.7747116,16.7604571 C52.4635023,16.1627429 55.1345721,15.2861714 55.1345721,15.2861714 L55.1345721,15.2861714 Z M67.497386,20.4221714 C67.497386,20.4221714 68.7884791,22.9776 69.5405721,24.5547429 C66.1162698,22.9158857 66.8421535,23.2633143 65.9065953,22.8164571 C65.128293,22.1147429 65.7242698,22.6496 62.9096186,20.1136 C64.6599442,20.2061714 67.497386,20.4221714 67.497386,20.4221714 L67.497386,20.4221714 Z M76.9612233,29.9124571 C76.9612233,29.9124571 77.1788744,32.7707429 77.2711767,34.5158857 C74.7368512,31.6907429 75.271293,32.2861714 74.5773163,31.5124571 C74.1283395,30.5696 74.4713395,31.2918857 72.8395256,27.8667429 C74.455386,28.6404571 76.9612233,29.9124571 76.9612233,29.9124571 L76.9612233,29.9124571 Z M77.9207116,41.8324571 L74.6183395,38.1524571 L74.357386,33.2050286 C74.7892698,33.6873143 77.2882698,36.4724571 77.6586186,36.8861714 C77.6905256,37.4861714 77.8888047,41.2267429 77.9207116,41.8324571 L77.9207116,41.8324571 Z M70.8043163,26.5970286 C71.0436186,27.1010286 72.6537814,30.4827429 72.9318279,31.0667429 L68.4762465,28.9307429 L66.3487349,24.4621714 C66.8489907,24.7021714 70.2995023,26.3558857 70.8043163,26.5970286 L70.8043163,26.5970286 Z M30.5354326,24.4621714 L28.4056419,28.9318857 L23.9500605,31.0667429 C24.2098744,30.5216 25.8211767,27.1376 26.0787116,26.5970286 C26.6188512,26.3398857 29.993014,24.7227429 30.5354326,24.4621714 L30.5354326,24.4621714 Z M19.2232698,36.8861714 C19.6232465,36.4416 22.123386,33.6530286 22.5256419,33.2050286 L22.2646884,38.1513143 L18.9623163,41.8324571 C18.9942233,41.2301714 19.1913628,37.4873143 19.2232698,36.8861714 L19.2232698,36.8861714 Z M18.4620605,44.3558857 L20.1075488,49.0256 L18.4620605,53.6941714 C18.2603628,53.1227429 17.0148512,49.5913143 16.8154326,49.0244571 C17.0148512,48.4587429 18.2615023,44.9238857 18.4620605,44.3558857 L18.4620605,44.3558857 Z M18.9623163,56.2164571 L22.2646884,59.8998857 L22.5256419,64.8450286 C22.1199674,64.3947429 19.6232465,61.6073143 19.2232698,61.1627429 C19.1913628,60.5638857 18.9942233,56.8187429 18.9623163,56.2164571 L18.9623163,56.2164571 Z M26.0787116,71.4530286 C25.8211767,70.9124571 24.2098744,67.5296 23.9500605,66.9833143 L28.4067814,69.1170286 L30.5354326,73.5890286 C29.9964326,73.3284571 26.6188512,71.7124571 26.0787116,71.4530286 L26.0787116,71.4530286 Z M36.3402233,78.3284571 C35.8946651,77.9273143 33.1153395,75.4198857 32.6663628,75.0164571 L37.5982698,75.2770286 L41.2709907,78.5913143 C40.6738744,78.5581714 36.9373395,78.3604571 36.3402233,78.3284571 L36.3402233,78.3284571 Z M48.4420837,80.7421714 C47.878014,80.5433143 44.3511535,79.2930286 43.7848047,79.0907429 L48.4409442,77.4416 L53.0982233,79.0918857 C52.5364326,79.2918857 49.0061535,80.5433143 48.4420837,80.7421714 L48.4420837,80.7421714 Z M66.3475953,73.5890286 L68.4762465,69.1193143 L72.9318279,66.9844571 C72.6936651,67.4873143 71.0458977,70.9467429 70.8043163,71.4518857 C70.2995023,71.6941714 66.8489907,73.3490286 66.3475953,73.5890286 L66.3475953,73.5890286 Z M77.6597581,61.1627429 C77.2859907,61.5798857 74.7277349,64.4324571 74.357386,64.8461714 L74.6172,59.8998857 L77.9207116,56.2176 C77.8910837,56.7741714 77.689386,60.6027429 77.6597581,61.1627429 L77.6597581,61.1627429 Z M78.422107,53.6953143 L76.7754791,49.0256 L78.422107,44.3558857 C78.6363395,44.9661714 79.8818512,48.4998857 80.0675953,49.0244571 C79.8670372,49.5913143 78.6226651,53.1227429 78.422107,53.6953143 L78.422107,53.6953143 Z M75.4057581,49.0256 C75.4114558,49.0416 76.3891767,51.8187429 77.444386,54.8107429 C75.8399209,56.6004571 74.2969907,58.3216 73.3534558,59.3741714 C73.3375023,59.6656 73.1893628,62.4816 73.0298279,65.5021714 C70.8647116,66.5410286 68.7816419,67.5387429 67.5076419,68.1490286 C67.382293,68.4107429 66.172107,70.9536 64.8707581,73.6850286 C61.7415953,73.8507429 58.8392,74.0061714 58.7594326,74.0107429 C56.4336419,76.1090286 55.0548047,77.3524571 54.2104093,78.1136 C51.2567349,77.0667429 48.5161535,76.0941714 48.4409442,76.0690286 C45.4906884,77.1147429 43.7426419,77.7341714 42.6726186,78.1136 C40.3411302,76.0107429 38.178293,74.0598857 38.1235953,74.0107429 C38.0563628,74.0073143 35.1471302,73.8507429 32.0122698,73.6850286 C30.6607814,70.8473143 29.4061535,68.2141714 29.375386,68.1478857 C29.3138512,68.1181714 26.6860837,66.8587429 23.8532,65.5021714 C23.6856884,62.3227429 23.5295721,59.3764571 23.5295721,59.3741714 C21.5992,57.2221714 20.3183628,55.7913143 19.4386419,54.8107429 C20.4961302,51.8084571 21.4761302,49.0278857 21.4761302,49.0256 C20.5177814,46.3044571 19.8762233,44.4838857 19.4386419,43.2393143 C21.4647349,40.9776 23.3529442,38.8747429 23.5295721,38.6770286 C23.5398279,38.4918857 23.6902465,35.6290286 23.8543395,32.5478857 C26.5892233,31.2370286 29.1360837,30.0176 29.375386,29.9021714 C29.454014,29.7353143 30.6869907,27.1490286 32.0122698,24.3650286 C35.1665023,24.1981714 38.0916884,24.0416 38.1213163,24.0404571 C38.832386,23.4004571 40.7012233,21.7136 42.6714791,19.9364571 C45.6502233,20.9924571 48.4124558,21.9730286 48.4409442,21.9810286 C49.3411767,21.6621714 51.7114093,20.8233143 54.2104093,19.9364571 C55.8251302,21.3936 57.4831535,22.8884571 58.7594326,24.0404571 C58.8585721,24.0450286 61.7529907,24.2004571 64.8707581,24.3650286 C65.8063163,26.3307429 66.7680837,28.3490286 67.5076419,29.9021714 C67.5965256,29.9444571 70.2117581,31.1993143 73.0298279,32.5478857 C73.1973395,35.7204571 73.3534558,38.6587429 73.3545953,38.6770286 C73.3659907,38.6896 75.3282698,40.8793143 77.444386,43.2393143 C76.3903163,46.2324571 75.4114558,49.0096 75.4057581,49.0256 L75.4057581,49.0256 Z M64.2166651,75.0164571 C63.773386,75.4153143 60.9883628,77.9273143 60.5439442,78.3273143 C59.9468279,78.3593143 56.2125721,78.5581714 55.6108977,78.5913143 L59.2836186,75.2770286 L64.2166651,75.0164571 Z M32.6675023,23.0324571 C33.1176186,22.6278857 35.8946651,20.1216 36.3390837,19.7227429 C36.9373395,19.6896 40.6670372,19.4918857 41.2698512,19.4587429 L37.5982698,22.7718857 L32.6675023,23.0324571 Z M43.7859442,18.9581714 C44.3568512,18.7547429 47.8768744,17.5067429 48.4420837,17.3078857 C49.0061535,17.5067429 52.5284558,18.7558857 53.0959442,18.9581714 L48.4409442,20.6073143 L43.7859442,18.9581714 Z M55.6131767,19.4598857 C56.1669907,19.4896 59.9855721,19.6918857 60.5439442,19.7227429 C60.9575953,20.0941714 63.7357814,22.6004571 64.2155256,23.0324571 L59.2836186,22.7718857 L55.6131767,19.4598857 Z M80.612293,46.6873143 C79.3496884,43.1044571 79.6152,43.8587429 79.2687814,42.8747429 C79.1924326,41.4416 79.1274791,40.1878857 79.0556884,38.8381714 C80.2009209,40.1170286 82.0834326,42.3136 82.0834326,42.3136 C82.0834326,42.3136 81.1934558,45.0370286 80.612293,46.6873143 L80.612293,46.6873143 Z M81.7085256,35.2061714 C81.8646419,38.1627429 81.8122233,37.1867429 81.9694791,40.1524571 C81.0282233,39.1033143 78.8528512,36.6781714 78.6659674,36.4678857 C78.6420372,36.0210286 78.4460372,32.2941714 78.405014,31.5216 C80.4071767,33.7558857 79.6721767,32.9341714 81.7085256,35.2061714 L81.7085256,35.2061714 Z M73.9015721,23.4907429 C75.2154558,26.2484571 74.7414093,25.2553143 76.0302233,27.9604571 C75.6222698,27.7638857 71.9108047,25.9844571 71.5746419,25.8256 C71.3091302,25.2678857 70.469293,23.5033143 69.4459907,21.3558857 C72.3119209,22.7284571 71.0971767,22.1478857 73.9015721,23.4907429 L73.9015721,23.4907429 Z M62.2213395,15.6621714 C64.3875953,17.6164571 63.3517581,16.6838857 65.8917814,18.9753143 C64.9402698,18.9238857 61.7826186,18.7558857 60.961014,18.7124571 C60.8983395,18.6553143 57.3224791,15.4290286 57.2894326,15.4016 C60.0653395,15.5467429 58.9485953,15.4884571 62.2213395,15.6621714 L62.2213395,15.6621714 Z M48.4409442,12.9136 C51.2008977,13.8907429 49.8756186,13.4210286 53.0970837,14.5638857 C52.6059442,14.7376 49.2762233,15.9193143 48.4420837,16.2141714 C48.4238512,16.2084571 43.7859442,14.5638857 43.7848047,14.5638857 C46.6541535,13.5467429 45.5807116,13.9273143 48.4409442,12.9136 L48.4409442,12.9136 Z M34.6628279,15.6621714 C37.6928512,15.5010286 36.5875023,15.5593143 39.5935953,15.4016 C38.6751302,16.2278857 36.7470372,17.9661714 35.922014,18.7124571 C35.4354326,18.7376 31.4276884,18.9501714 30.990107,18.9741714 C33.2942465,16.8941714 32.4612465,17.6473143 34.6628279,15.6621714 L34.6628279,15.6621714 Z M22.9814558,23.4907429 C25.700386,22.1867429 24.7340605,22.6507429 27.4358977,21.3558857 C27.3709442,21.4941714 25.5408512,25.3341714 25.308386,25.8244571 C23.6777116,26.6038857 20.8528047,27.9593143 20.8528047,27.9593143 C22.2122698,25.1056 21.6299674,26.3273143 22.9814558,23.4907429 L22.9814558,23.4907429 Z M15.1756419,35.2061714 C17.1584326,32.9936 16.6695721,33.5410286 18.4768744,31.5227429 C18.4381302,32.2724571 18.2580837,35.6861714 18.2159209,36.4678857 C16.9179907,37.9147429 15.3169442,39.7010286 14.9146884,40.1513143 C15.0765023,37.0976 15.0149674,38.2381714 15.1756419,35.2061714 L15.1756419,35.2061714 Z M12.4350605,49.0244571 C13.4241767,46.2141714 13.0709209,47.2176 14.0794093,44.3558857 C14.1512,44.5570286 15.5858744,48.6290286 15.7260372,49.0244571 C15.6439907,49.2587429 14.1284093,53.5570286 14.0794093,53.6941714 C13.156386,51.0747429 13.5176186,52.0976 12.4350605,49.0244571 L12.4350605,49.0244571 Z M15.1756419,62.8438857 C14.9773628,59.0918857 15.1494326,62.3524571 14.9146884,57.8987429 C15.3169442,58.3490286 17.713386,61.0210286 18.2159209,61.5821714 C18.2603628,62.4221714 18.4324326,65.6621714 18.4768744,66.5261714 C16.4359674,64.2507429 17.204014,65.1078857 15.1756419,62.8438857 L15.1756419,62.8438857 Z M22.9803163,74.5604571 C21.7245488,71.9238857 22.3250837,73.1833143 20.8528047,70.0918857 C22.2259442,70.7501714 25.308386,72.2267429 25.308386,72.2267429 C25.3687814,72.3547429 27.3367581,76.4861714 27.4358977,76.6941714 C24.6862,75.3776 25.7174791,75.8724571 22.9803163,74.5604571 L22.9803163,74.5604571 Z M34.6628279,82.3890286 C32.4179442,80.3638857 33.2281535,81.0953143 30.9912465,79.0770286 C31.1940837,79.0873143 34.9066884,79.2850286 35.922014,79.3398857 C36.5863628,79.9364571 38.9531767,82.0724571 39.5935953,82.6507429 C36.5533163,82.4896 37.6917116,82.5490286 34.6628279,82.3890286 L34.6628279,82.3890286 Z M48.4409442,85.1364571 C45.3414093,84.0381714 46.4068744,84.4153143 43.7848047,83.4873143 C44.220107,83.3318857 47.9942465,81.9947429 48.4420837,81.8358857 C49.3514326,82.1604571 53.0970837,83.4873143 53.0970837,83.4873143 C50.475014,84.4153143 51.5313628,84.0416 48.4409442,85.1364571 L48.4409442,85.1364571 Z M62.2213395,82.3890286 C59.1081302,82.5536 60.4505023,82.4827429 57.2894326,82.6507429 C58.0118977,81.9981714 60.3661767,79.8747429 60.961014,79.3387429 C60.961014,79.3387429 65.812014,79.0804571 65.8917814,79.0758857 C63.6810837,81.0701714 64.4719209,80.3570286 62.2213395,82.3890286 L62.2213395,82.3890286 Z M73.9027116,74.5604571 C71.153014,75.8781714 72.1375721,75.4050286 69.4459907,76.6941714 C69.4459907,76.6941714 71.5746419,72.2267429 71.5746419,72.2256 L76.0313628,70.0907429 C74.7516651,72.7787429 75.2074791,71.8210286 73.9027116,74.5604571 L73.9027116,74.5604571 Z M81.7085256,62.8438857 C79.7040837,65.0804571 80.4026186,64.3010286 78.405014,66.5261714 C78.4369209,65.9227429 78.6431767,62.0301714 78.667107,61.5821714 C78.8266419,61.4027429 81.3108279,58.6336 81.9683395,57.8976 C81.8088047,60.9307429 81.8680605,59.8096 81.7085256,62.8438857 L81.7085256,62.8438857 Z M82.8024791,53.6953143 C82.7420837,53.5238857 81.1934558,49.1284571 81.1569907,49.0244571 C81.2037116,48.8907429 82.7945023,44.3776 82.8024791,44.3558857 C83.8132465,47.2221714 83.4383395,46.1604571 84.4479674,49.0244571 C83.4508744,51.8541714 83.7961535,50.8758857 82.8024791,53.6953143 L82.8024791,53.6953143 Z" id="Fill-63" fill="#FFFFFF" mask="url(#mask-6)"></path>
                        <polygon id="Fill-64" fill="#FFFFFF" mask="url(#mask-6)" points="30.2124884 43.8034286 67.0513721 43.8034286 67.0513721 43.2377143 30.2124884 43.2377143"></polygon>
                        <polygon id="Fill-65" fill="#FFFFFF" mask="url(#mask-6)" points="30.2124884 54.9268571 67.0513721 54.9268571 67.0513721 54.3611429 30.2124884 54.3611429"></polygon>
                    </g>
                </g>
            </g>
        </g>
    </g>
</svg>